Coordinates
version=1
nRows=8
nColumns=40
inDegrees=yes

Units are S.I. units (second, meters, Newtons, ...)
Angles are in degrees.

endheader
time	pelvis_tilt	pelvis_list	pelvis_rotation	pelvis_tx	pelvis_ty	pelvis_tz	hip_flexion_r	hip_adduction_r	hip_rotation_r	knee_angle_r	knee_angle_r_beta	ankle_angle_r	subtalar_angle_r	mtp_angle_r	hip_flexion_l	hip_adduction_l	hip_rotation_l	knee_angle_l	knee_angle_l_beta	ankle_angle_l	subtalar_angle_l	mtp_angle_l	lumbar_extension	lumbar_bending	lumbar_rotation	arm_flex_r	arm_add_r	arm_rot_r	elbow_flex_r	pro_sup_r	wrist_flex_r	wrist_dev_r	arm_flex_l	arm_add_l	arm_rot_l	elbow_flex_l	pro_sup_l	wrist_flex_l	wrist_dev_l
      0.65000000	     -4.55889118	     -1.06947353	     -2.50066951	     -1.18460919	      0.87559163	     -1.38891318	     -6.38034420	      1.12844251	     -8.19233950	    -26.78284576	     -0.46744884	      8.84371097	      0.21856208	     -8.39164132	     33.94303435	      6.44238579	     14.68348802	    -28.28591955	     -0.49368243	      1.80327119	     10.22165582	     -0.78230901	     -1.99778400	     -0.96648550	      2.55743714	      0.86680681	    -11.36182621	     -9.67665411	     49.80495518	     89.95437384	      0.00000000	      0.00000000	    -10.31778011	      6.89665720	     14.19104060	     22.08358104	     89.95437384	      0.00000000	      0.00000000
      0.66000000	     -4.43115059	     -0.83708810	     -2.43248633	     -1.17314282	      0.87532716	     -1.39112225	     -6.40836529	      0.68772380	     -7.97782340	    -28.27612428	     -0.49351147	      7.74953635	     -0.53635360	     -7.93967289	     33.84278249	      6.06760912	     14.21871814	    -29.52287647	     -0.51527140	      1.31919100	     10.66026184	     -0.60272702	     -1.91257893	     -1.43126308	      2.19496906	      0.74876577	    -11.00630616	     -9.90364702	     49.11764883	     89.95437384	      0.00000000	      0.00000000	    -10.05514145	      7.18389697	     14.23645159	     22.08980353	     89.95437384	      0.00000000	      0.00000000
      0.67000000	     -4.80981508	     -0.31869547	     -2.37864374	     -1.16213738	      0.87479509	     -1.39363357	     -5.49120357	     -0.03394168	     -7.78000508	    -30.29799096	     -0.52879970	      5.93401301	     -3.03201522	     -6.92699377	     34.15208662	      5.16226050	     13.28734949	    -30.39708944	     -0.53052929	      0.63224801	     12.53320967	      0.00155834	     -1.28497442	     -2.17102379	      1.92812732	      0.42118374	    -10.59645333	    -10.33446699	     48.50059434	     89.95437384	      0.00000000	      0.00000000	     -9.56909175	      7.38098908	     14.95761910	     21.77632857	     89.95437384	      0.00000000	      0.00000000
      0.68000000	     -4.67817997	     -0.06229699	     -2.20004322	     -1.15049858	      0.87513040	     -1.39597054	     -5.17648930	     -0.59660520	     -8.12285315	    -32.25471759	     -0.56295102	      4.17853100	     -3.82672601	     -6.26960096	     33.93765197	      4.76884281	     13.15425501	    -31.61790641	     -0.55183657	      0.76596000	     12.43875851	      0.16217208	     -1.22383944	     -2.66299099	      1.51833387	      0.12710363	    -10.23386768	    -10.67666455	     47.85760786	     89.95437384	      0.00000000	      0.00000000	     -9.21891683	      7.70664520	     15.12041860	     21.78872289	     89.95437384	      0.00000000	      0.00000000
      0.69000000	     -4.75713852	      0.33124778	     -2.01526205	     -1.13921930	      0.87541802	     -1.39844520	     -4.27205822	     -1.29970289	     -8.45894274	    -34.66008075	     -0.60493253	      1.82035021	     -5.41537100	     -5.09867588	     33.74636406	      3.99748011	     12.51986963	    -32.42075912	     -0.56584899	      1.06071577	     13.11476853	      0.67343889	     -0.95153713	     -3.29066606	      1.13278016	     -0.25804522	     -9.85266217	    -11.02090058	     47.26292625	     89.95437384	      0.00000000	      0.00000000	     -8.74752667	      7.97980462	     15.59034350	     21.72114721	     89.95437384	      0.00000000	      0.00000000
      0.70000000	     -4.68964814	      0.64146176	     -1.82603570	     -1.12779462	      0.87603369	     -1.40082734	     -3.40133802	     -2.02654524	     -9.11453892	    -37.10982572	     -0.64768864	     -1.13033438	     -6.61065178	     -3.95504446	     33.23187613	      3.29724125	     11.99197537	    -32.99725867	     -0.57591081	      1.61250592	     13.26748871	      0.97721375	     -0.83753913	     -3.81148810	      0.76350826	     -0.67389713	     -9.49823352	    -11.35050592	     46.67510082	     89.95437384	      0.00000000	      0.00000000	     -8.28244117	      8.30814306	     15.85267368	     21.73513666	     89.95437384	      0.00000000	      0.00000000
      0.71000000	     -4.56914867	      0.91994800	     -1.55513372	     -1.11616825	      0.87681340	     -1.40340787	     -2.53326079	     -2.78222557	     -9.92897049	    -39.52510325	     -0.68984319	     -4.63741158	     -7.50020362	     -2.95805110	     32.52830830	      2.61940015	     11.69748401	    -33.38894148	     -0.58274696	      2.35408513	     12.99457187	      1.05076115	     -0.77048222	     -4.29715689	      0.33507660	     -1.19410645	     -9.26197258	    -11.50018772	     46.14875647	     89.95437384	      0.00000000	      0.00000000	     -7.81403715	      8.65266161	     15.94870107	     21.79751619	     89.95437384	      0.00000000	      0.00000000
      0.72000000	     -4.41931906	      1.16950311	     -1.29247852	     -1.10475166	      0.87777463	     -1.40603757	     -1.61293333	     -3.48014952	    -10.53613131	    -41.93292185	     -0.73186755	     -8.42090316	     -8.73776564	     -1.86953397	     31.67730524	      1.94583090	     11.37221224	    -33.60917768	     -0.58659081	      3.14748580	     13.11552101	      1.16015436	     -0.76996419	     -4.70787373	     -0.09260252	     -1.65189084	     -9.05677234	    -11.63376552	     45.54396038	     89.95437384	      0.00000000	      0.00000000	     -7.31013492	      8.94844072	     16.14653666	     21.93001914	     89.95437384	      0.00000000	      0.00000000
